<svg xmlns="http://www.w3.org/2000/svg" xmlns:xlink="http://www.w3.org/1999/xlink" width="42" height="42" viewBox="0 0 42 42"><defs><path id="c8jwa" d="M995.802 3016.06l-5.42 5.42a.678.678 0 0 1-.958 0l-1.553-1.554v15.977h-.006a.671.671 0 0 1-.192.479l-5.42 5.419a.678.678 0 0 1-.479.198h-24.386a3.378 3.378 0 0 1-2.012-6.096 3.356 3.356 0 0 1 0-5.42 3.377 3.377 0 0 1 2.012-6.096h4.742v-4.461l-1.554 1.553a.678.678 0 0 1-.958 0l-5.419-5.419a.678.678 0 0 1 0-.958l6.774-6.774a.678.678 0 0 1 .358-.187l7.451-1.355a.677.677 0 0 1 .799.666c.002.216.021.43.058.642l4.684-1.171v-.826c0-.374.303-.677.677-.677a2.032 2.032 0 1 0-2.032-2.032h-1.355a3.387 3.387 0 1 1 4.065 3.319v.217l4.684 1.17a4.01 4.01 0 0 0 .058-.642.677.677 0 0 1 .799-.666l7.45 1.355c.136.025.261.09.358.187l6.775 6.774a.678.678 0 0 1 0 .958zm-25.728-6.679a5.527 5.527 0 0 0 4.926 2.728 5.527 5.527 0 0 0 4.926-2.728L975 3008.15zm-12.686 20.425h14.903a2.032 2.032 0 1 0 0-4.064h-14.903a2.032 2.032 0 1 0 0 4.064zm0 5.42h14.903a2.032 2.032 0 1 0 0-4.065h-14.903a2.032 2.032 0 1 0 0 4.064zm16.935 3.386c0-1.122-.91-2.032-2.032-2.032h-14.903a2.032 2.032 0 1 0 0 4.065h14.903c1.122 0 2.032-.91 2.032-2.033zm11.236-2.032h-3.107v3.107zm8.806-21l-6.148-6.144-6.504-1.183c-.443 2.938-3.285 5.211-6.714 5.211-3.43 0-6.272-2.273-6.715-5.21l-6.503 1.182-6.145 6.145 4.461 4.461 4.263-4.263.958.958-1.834 1.834v5.816h8.807a3.378 3.378 0 0 1 2.014 6.096 3.356 3.356 0 0 1 0 5.42l.075.055a3.341 3.341 0 0 1 .603 4.687h6.114v-4.742c0-.374.303-.678.677-.678h4.742v-16.654l-1.833-1.834.957-.958 4.263 4.263zm-37.655 11.517h16.258v1.354H956.71zm0 5.419h15.58v1.355h-15.58zm0 5.419h15.58v1.355h-15.58z"/></defs><g><g transform="translate(-954 -3000)"><use fill="#fcff00" xlink:href="#c8jwa"/></g></g></svg>