<svg xmlns="http://www.w3.org/2000/svg" xmlns:xlink="http://www.w3.org/1999/xlink" width="32" height="32" viewBox="0 0 32 32"><defs><path id="9kw4a" d="M961.995 3217.001h2v1.996h-2zm27.64-6.864c.465 1.705-1.072 2.944-1.639 3.385l.002.003c.082.157.184.353.246.592.275 1.05-.137 2.48-1.304 3.05l-.002.001c.094.194.207.45.243.765a2.435 2.435 0 0 1-.487 1.774c-.613.807-1.699 1.293-2.902 1.296h-9.842a1 1 0 1 1 0-2.001h9.839c.555 0 1.084-.205 1.313-.507a.434.434 0 0 0 .093-.33 2.969 2.969 0 0 0-.085-.181 3.604 3.604 0 0 1-.188-.44c-.215-.661-.078-1.308.365-1.732.24-.23.503-.334.678-.403l.1-.042c.185-.09.313-.48.243-.745-.017-.056-.052-.112-.083-.17-.163-.312-.436-.834-.235-1.487.152-.496.498-.807.745-.997.904-.701 1.026-1.095.969-1.302a1.753 1.753 0 0 0-.24-.477c-.439-.535-.513-1.045-.265-1.567.136-.282.312-.49.453-.657.043-.05.087-.1.126-.152.181-.241.251-.564.214-.987a2.311 2.311 0 0 1-.047-.262c-.048-.139-.168-.443-.299-.773a1.253 1.253 0 0 0-1.172-.796h-5.498a.974.974 0 0 1-.108-.006c-.923-.1-1.858-.811-1.858-1.975 0-2.138.397-4.772.414-4.884a.939.939 0 0 1 .025-.115c.239-.872.348-1.639.33-2.344a4.182 4.182 0 0 0-.28-1.463 2.803 2.803 0 0 0-.51-.825c-.175-.196-.381-.328-.583-.374a.894.894 0 0 0-.335-.007.416.416 0 0 0-.181.078 2.11 2.11 0 0 0-.04.316c-.005.134.023.31.053.497.051.31.11.663.066 1.065-.13 1.248-1.224 4.406-1.424 4.86-.21.47-.43.933-.66 1.393-1.147 2.28-2.523 4.165-4.093 5.605-.877.808-2.501 1.742-3.783 1.884 0 .022-.011.04-.013.062v12.17a2.07 2.07 0 0 1-2.06 2.072h-5.882a2.069 2.069 0 0 1-2.06-2.073v-13.864c0-1.143.924-2.072 2.06-2.072h5.881c1.004 0 1.84.726 2.022 1.683.765-.154 1.899-.797 2.482-1.336 1.391-1.276 2.621-2.968 3.658-5.03.217-.43.424-.864.618-1.304.186-.422 1.17-3.347 1.265-4.258.014-.136-.016-.322-.05-.537a4.348 4.348 0 0 1-.079-.895c.01-.279.05-.528.12-.763.121-.416.343-.77.641-1.016.3-.25.678-.425 1.09-.503a2.88 2.88 0 0 1 1.155.023c.605.14 1.164.48 1.618.983.366.404.662.881.879 1.415.261.647.404 1.375.425 2.163.022.888-.104 1.826-.385 2.866-.056.384-.381 2.689-.383 4.508h.007c.008-.005.025-.002.04 0h5.416c1.346 0 2.537.808 3.032 2.06.35.88.382 1.022.402 1.105.016.074.025.149.025.224.028.084.044.18.052.27.081.921-.123 1.717-.607 2.363a4.632 4.632 0 0 1-.162.199c.202.324.336.62.418.922zm-23.64-3.141h-6.001v14.007h6.002z"/></defs><g><g transform="translate(-958 -3191)"><use fill="#fcff00" xlink:href="#9kw4a"/></g></g></svg>