<svg xmlns="http://www.w3.org/2000/svg" xmlns:xlink="http://www.w3.org/1999/xlink" width="33" height="39" viewBox="0 0 33 39"><defs><path id="bxgpa" d="M962.658 2936.896c-2.69-5.894-.019-12.819 5.966-15.468 5.984-2.649 13.016-.018 15.706 5.876a11.5 11.5 0 0 1 0 9.597c-1.918 4.197-6.156 6.897-10.83 6.899-4.68.002-8.924-2.7-10.842-6.904zm6.51 4.69c5.32 2.354 11.57.017 13.962-5.222a10.223 10.223 0 0 0 0-8.524c-1.704-3.734-5.473-6.137-9.63-6.14-4.157 0-7.928 2.401-9.633 6.135-2.391 5.239-.018 11.395 5.301 13.75zM990 2911.95v35.1c0 1.077-.887 1.95-1.98 1.95h-29.04c-1.094 0-1.98-.873-1.98-1.95v-35.1c0-1.077.886-1.95 1.98-1.95h29.04c1.093 0 1.98.873 1.98 1.95zm-1.32 34.45h-30.36v.65c0 .359.295.65.66.65h29.04c.364 0 .66-.291.66-.65zm0-27.3h-30.36v26h30.36zm0-7.15c0-.36-.296-.65-.66-.65h-29.04a.655.655 0 0 0-.66.65v5.85h30.36zm-24.42 20.15c0-5.026 4.137-9.1 9.24-9.1.298 0 .594.019.89.046.753.069 1.495.23 2.208.476.04.014.077.031.117.045a9.186 9.186 0 0 1 5 4.362c2.34 4.47.557 9.96-3.98 12.263-.112.057-.227.107-.342.159a3.104 3.104 0 0 1-.217.102c-.067.027-.133.05-.198.075-.828.334-1.7.544-2.591.625a9.353 9.353 0 0 1-.887.047c-5.103 0-9.24-4.075-9.24-9.1zm16.132-2.54a3.855 3.855 0 0 0 .428 5.493c.015-.035.034-.068.048-.104.035-.086.063-.173.094-.26a7.044 7.044 0 0 0 .366-1.452c.013-.09.03-.179.04-.269a7.23 7.23 0 0 0 0-1.744c-.01-.09-.027-.18-.041-.27a7.64 7.64 0 0 0-.184-.882 8.214 8.214 0 0 0-.18-.565 4.77 4.77 0 0 0-.095-.26c-.014-.035-.033-.069-.048-.104v-.004c-.153.129-.296.27-.428.42zm-11.098 9.15c3.708 2.287 8.595 1.18 10.916-2.471a5.219 5.219 0 0 1-1.022-1.007 5.139 5.139 0 0 1 1.022-7.271c-1.444-2.28-3.981-3.664-6.71-3.661-2.73-.001-5.267 1.382-6.715 3.66-2.322 3.652-1.198 8.465 2.51 10.75zm-1.734-5.96a.655.655 0 0 1-.66-.65c.004-3.588 2.956-6.496 6.6-6.5.364 0 .66.29.66.65 0 .359-.296.65-.66.65-2.915.003-5.277 2.33-5.28 5.2 0 .359-.296.65-.66.65zm14.52-18.85c0 .359-.296.65-.66.65h-2.64a.655.655 0 0 1-.66-.65c0-.359.295-.65.66-.65h2.64c.364 0 .66.291.66.65zm0 1.95c0 .359-.296.65-.66.65h-2.64a.655.655 0 0 1-.66-.65c0-.36.295-.65.66-.65h2.64c.364 0 .66.29.66.65zm-12.54-1.95c0 .359-.296.65-.66.65h-2.64a.655.655 0 0 1-.66-.65c0-.359.296-.65.66-.65h2.64c.364 0 .66.291.66.65zm0 1.95c0 .359-.296.65-.66.65h-2.64a.655.655 0 0 1-.66-.65c0-.36.296-.65.66-.65h2.64c.364 0 .66.29.66.65zm17.82-1.95c0 .359-.296.65-.66.65h-2.64a.655.655 0 0 1-.66-.65c0-.359.295-.65.66-.65h2.64c.364 0 .66.291.66.65zm0 1.95c0 .359-.296.65-.66.65h-2.64a.655.655 0 0 1-.66-.65c0-.36.295-.65.66-.65h2.64c.364 0 .66.29.66.65zm-9.9-1.3c0 1.436-1.182 2.6-2.64 2.6-1.458 0-2.64-1.164-2.64-2.6 0-1.436 1.182-2.6 2.64-2.6 1.458 0 2.64 1.164 2.64 2.6zm-1.32 0c0-.718-.591-1.3-1.32-1.3-.73 0-1.32.582-1.32 1.3 0 .718.59 1.3 1.32 1.3a1.31 1.31 0 0 0 1.32-1.3zm-11.22 0c0 1.436-1.182 2.6-2.64 2.6-1.458 0-2.64-1.164-2.64-2.6 0-1.436 1.182-2.6 2.64-2.6 1.458 0 2.64 1.164 2.64 2.6zm-1.32 0c0-.718-.591-1.3-1.32-1.3a1.31 1.31 0 0 0-1.32 1.3c0 .718.59 1.3 1.32 1.3.729 0 1.32-.582 1.32-1.3z"/></defs><g><g transform="translate(-957 -2910)"><use fill="#fcff00" xlink:href="#bxgpa"/></g></g></svg>